<?xml version="1.0" encoding="UTF-8"?>
<svg version="1.1" viewBox="0 0 2936 2168" width="734" height="542" xmlns="http://www.w3.org/2000/svg">
<path fill="#fe86d4" transform="translate(2151,817)" d="m0 0h41l36 3 34 5 36 8 29 9 25 9 29 13 29 15 21 13 16 11 10 7 3 4-3 1-37-14-29-10-49-16-45-12-34-7-31-4-38-2h-13l-30 3-27 5-10 2-1 13-2 25-1 3 32-3 21-1h17l32 2 30 4 28 6 21 6 22 8 19 8 17 9 14 7 24 15 15 10 17 11 18 10 17 8 15 5 18 3h26l17-2 18-5 23-10 25-14 27-16 10-5 1 4-5 20-7 19-10 20-13 21-14 20-11 16-7 11h16l25-2 29-4 36-7 60-15 24-7h4l-1 5-10 13-9 10-15 15-19 14-22 14-18 10-28 15-22 12-9 5 1 3 17 9 15 5 21 4 26 2 36 1 16 1 3 1-2 4-11 8-13 9-21 12-17 8-37 16-27 12h-2l6 8 7 7 7 8 20 18 11 9 16 12 14 10v2l-2 1h-28l-57-1-11 33-10 24-10 19-8 12-11 13-3 4h-2v2l-13 10-13 8-15 7-4-1 7-20 8-25 8-32 4-21 2-18v-47l-3-20-6-21-7-16-9-16-13-16-10-9-5-3-4 13-8 35-9 42-7 25-6 16-8 16-11 17-1 2-3-1-7-22-8-26-10-27-10 1-32 10 1 12 6 28 8 30 1 3 39 4 7 2 1 1v7l-3 12-8 16-11 16-7 10-6 12h-2l-10-18-15-34-5-12-8-17-10-16-10-12-12-9-13-7-1 2v11l5 25 9 27 14 35 8 24 4 20 1 11v11l-2 13-7 10-8 7-10 9-14 11-24 16-29 15-21 9-24 8-22 5-26 4-11 1h-37l-26-3-22-5-27-9-21-10-19-12-13-10-10-9-4-3v-2h-2v-2h-2l-5-6-3-3 1-3 22-11 22-12 18-10 14-10 9-8 7-16 4-20v-26l-4-18-7-16-7-9-8-7-11-5-12-2h-16l-14 2-13 5-11 8-6 5-8 10-10 15-14 24-7 13-5-5-9-19-9-25-6-21-6-31-3-26-1-14v-33l2-28 4-29 5-27 6-25 9-31 11-34-16 11-21 16-19 14-21 16-18 13-16 11-10 7h-3l2-10 7-25 9-22 8-16 10-18 11-16 7-10h2l2-4 9-11 14-15 10-10 8-7 14-12 17-13 17-12 17-11 25-15 34-18 30-14 34-14 13-5h2l5-25 5-22-24 5-38 9-57 16-40 11-9 2-4-1 7-6 16-10 20-12 26-13 24-10 36-12 24-6 26-5 31-4zm13 202-16 3-16 8-15 10-13 11-16 16-12 16-12 20-8 17-7 19-6 23-3 14-2 19-1 29 2 27 3 19 6 24 8 23 12 25 7 10 10 9 16 9 19 5h25l15-3 15-5 21-11 14-10 12-11 10-11 9-14 8-16 11-26 11-33 6-25 4-26 1-16v-16l-2-23-4-19-5-16-7-16-8-15-10-14-4-5h-2v-2l-12-9-16-8-13-4-12-2zm-263 71m370 284-10 3-10 7-6 10-1 4v8l10 45 6 22 7 16 7 12 9 10 11 7 10 3h17l3-2-1-15-3-27-5-30-7-26-8-21-8-16-4-6-5-3-4-1zm-147 45-13 2-13 5-9 6-10 9-11 13-11 18-8 14-10 18-12 19-10 13-2 4-4 2v2l-4 2v2l16 8 26 10 19 6 26 6 19 3 10 1h45l22-3 25-6 20-8 9-6 7-8 4-11 1-5v-20l-4-20-8-27-6-14-9-11-11-8-13-6-13-4-9-2-20-2h-17l-2-1z"/>
<path fill="#fe86d4" transform="translate(797,896)" d="m0 0h28l26 2 28 4 24 5 21 6 25 9 27 12 33 17 22 13 30 20 16 12 22 18 16 15 14 14 9 11 10 12 13 18 11 18 12 23 10 25 6 19 1 7-5-1-25-17-18-13-19-14-18-13-13-9-19-12-7-4 11 33 10 37 7 33 5 34 2 24v60l-2 21-4 26-7 30-11 33-9 22-3 1-6-10-12-25-13-22-9-11-9-8-15-8-12-3-10-1h-19l-11 3-10 6-8 8-6 10-7 16-3 17-1 12 3 24 4 12 6 10 12 12 15 9 16 8 35 14 8 5-6 7-7 8-10 10-11 10-17 12-13 8-22 10-24 8-22 5-26 3-20 1h-9l-33-4-28-6-22-7-25-10-23-12-21-14-16-13-10-9-9-8-9-12-3-10-1-8v-18l4-24 7-24 17-47 7-24 5-25-13 6-11 7-3 3h-2v2l-5 5-7 8-8 13-10 21-9 24-10 30h-4l-24-24-10-14-4-8-2-10v-7l2-5 6-2 24-4 16-2 2-10 9-36 5-27-9-1-33-7-7-1-6 27-10 43-2 6-3-1-11-15-9-16-8-20-6-21-14-70-6-22v-2l-9 6-4 4h-2v2h-2v2h-2v2h-2v2h-2l-2 4-8 10-9 16-7 19-5 22-2 23v21l2 23 6 35 10 40 8 25v4l-9-2-15-6-11-7-13-11-10-12-10-16-12-25-10-28-6-19-85-1 2-4 10-8 13-10 17-14 13-12 10-9 10-10 4-6-16-8-27-11-31-13-15-8-12-8-10-8-10-9 3-3 51-4 29-4 15-4 16-6 12-7 2-2-20-10-46-25-23-14-12-8-19-14-14-12-29-29-1-4 8 1 37 10 35 9 42 9 33 5 20 2 23 1 6 1-4-8-11-16-13-18-14-21-10-17-7-15-5-15-4-18v-4l5 1 11 8 20 12 23 12 19 8 20 6 21 4 24 1 14-1 17-4 16-6 18-10 13-10 23-16 24-14 23-12 26-11 28-10 29-8 30-6 34-4zm-3 123-16 2-14 4-13 7-10 8-16 16-10 15-9 19-5 15-5 23-1 7v49l4 26 8 38 5 17 6 15 8 17 10 16 9 12 11 12 8 8 15 11 16 9 14 6 15 4 7 1h20l15-3 19-8 13-9 11-11 7-11 9-23 6-20 5-26 2-17v-44l-3-24-5-24-6-19-10-25-12-23-11-16-10-13-11-12-8-8-16-10-14-6-18-4-9-1zm-91 356-12 8-7 6-8 11-8 16-5 15-3 12-4 30-2 31v14l2 3 29-2 5-3 7-10 8-13 10-18 9-21 5-17 2-12v-14l-2-10-4-10-8-10-9-6zm123 45-34 4-17 4-16 8-13 12-6 8-8 14-6 16-3 13-1 10v18l3 15 4 12 5 5 16 8 15 6 24 6 23 3h41l24-3 24-5 31-9 32-13 7-4-1-3-5-5-9-10-13-18-13-22-10-17-10-16-12-17-12-13-3-3-16-3-8-1z"/>
<path fill="#fe86d4" transform="translate(2270,678)" d="m0 0h20l31 4 36 7 31 8 25 8 25 9 26 11 30 15 23 13 27 18 15 11 20 16 10 9 7 6v3l-8-1-38-7-61-9-50-6-52-5-58-4-26-1h-18l-17-1h-61l-49 1-64 4-45 4-35 4-45 6-49 8-60 12-40 9-15 3v-3l23-16 24-16 23-14 21-12 27-14 31-14 35-14 35-12 42-12 44-10 38-7 38-5 44-4z"/>
<path fill="#fe86d4" transform="translate(704,680)" d="m0 0h43l28 2 40 5 50 10 54 13 45 13 36 12 33 13 24 11 16 8 22 12 22 14 14 10 13 10 8 6v2l4 2 7 6v3l-10-1-40-7-49-10-47-10-44-8-40-5-51-5-42-3-20-1-24-1h-83l-12 1h-18l-52 3-60 5-45 5-54 7-53 8-30 5h-6l2-4 9-9 8-7 9-8 13-10 18-13 15-10 24-14 25-13 31-13 28-10 24-7 36-8 32-5 29-3z"/>
<path fill="#fe86d4" transform="translate(1317,176)" d="m0 0 3 1 14 43 12 34 9 21 10 19 10 14 9 10 10 10 13 9 14 7 19 6 20 4 17 2h30l22-3 22-5 21-8 13-7 12-9 14-14 12-18 8-16 8-20 9-30 12-46 3-2 10 8 13 12 10 13 9 16 6 14 5 17 3 16 1 9v48l-3 22-5 25-8 28-11 25-9 16-12 17-9 11-4 5h-2l-2 4h-2v2h-2v2l-8 7-10 9-14 10-16 10-12 7-26 11-23 7-24 5-19 2h-31l-23-3-17-4-18-6-20-9-24-14-16-11-13-11-10-9-12-13-13-17-11-17-12-23-8-20-6-19-5-23-3-23v-32l4-27 6-22 6-16 8-16 9-14 12-16h2l2-4zm-24 76-2 39v37l2 22 4 24 6 21 8 19 7 13 12 17 9 11 20 20 15 11 21 12 21 9 20 6 21 4 10 1h41l21-3 17-4 20-7 23-11 18-12 10-8 13-12 9-11 9-12 11-17 8-16 8-20 6-23 3-17 2-22v-29l-2-25-2-17-5 1-14 21-8 13-9 15-11 18-7 10-11 14-2 4-4 2v2l-4 2-9 8-19 12-16 8-15 6-14 4-20 4-16 2h-19l-21-2-20-4-27-9-16-8-14-8-16-12-10-9-10-10-10-13-11-17-10-18-13-24-7-12z"/>
<path fill="#fe86d4" transform="translate(603,1597)" d="m0 0 6 1 35 14 40 18 28 12 33 13 28 9 26 6 28 4 14 1h44l26-4 28-7 28-9 41-14 27-9h4l-1 4-9 9-7 8-17 17h-2v2l-11 9-14 11-18 12-14 8-20 8-29 9-13 5-4 1h-7l-15-4-32-13-4-1h-8l-23 5-34 12-5 1-10-11-8-10-9-10-2-3-8 1-43 12h-4l-1-2 1-41 1-2-14 3-25 4h-5l-3-9-14-50-5-19z"/>
<path fill="#fe86d4" transform="translate(2371,1596)" d="m0 0 4 1-14 47-8 29-2 3-9-1-30-5-4-1-1 21-2 22-1 3-4-1-38-15-4-2h-4l-12 20-10 16-2 1-18-6-21-5-23-3h-11l-21 3-16 5-22 11-7-6-17-9-18-6-25-6-9-4-16-10-14-11-15-13-16-15-15-15-7-8-2-4 8 1 29 10 41 15 25 8 28 7 20 3h54l24-3 26-5 24-7 31-11 31-13 35-16 41-18z"/>
<path fill="#fe86d4" transform="translate(788,817)" d="m0 0h24l31 2 33 4 36 7 29 8 27 9 35 15 20 10 19 11 17 11 3 3v2l-5-1-41-12-41-11-43-10-44-8-40-5-15-1-29-1-10-1-9 1h-12l-35 3-49 8-34 8-33 10-30 10-42 15-22 8-8 1 1-3 18-13 21-14 17-10 25-13 28-12 36-12 26-7 32-6 22-3 23-2z"/>
<path fill="#fe86d4" transform="translate(1294,256)" d="m0 0"/>
</svg>
